<?xml version="1.0" encoding="utf-8"?>
<!-- Generator: Adobe Illustrator 26.2.1, SVG Export Plug-In . SVG Version: 6.00 Build 0)  -->
<svg version="1.1" id="Layer_1" xmlns="http://www.w3.org/2000/svg" xmlns:xlink="http://www.w3.org/1999/xlink" x="0px" y="0px"
	 viewBox="0 0 2000 2000" style="enable-background:new 0 0 2000 2000;" xml:space="preserve">
<style type="text/css">
	.st0{fill:#FFFFFF;stroke:#000000;stroke-width:6;stroke-linecap:round;stroke-linejoin:round;stroke-miterlimit:10;}
</style>
<g id="Drone_Man">
	<g>
		<path class="st0" d="M1033.86,753.51V893.6c0,9-18.4,16.3-41.13,16.3c-22.73,0-41.13-7.31-41.13-16.3V753.51"/>
		<ellipse class="st0" cx="992.73" cy="675.81" rx="60.82" ry="24.1"/>
		<path class="st0" d="M1053.55,675.81v58.07c0,13.33-27.22,24.1-60.82,24.1c-33.6,0-60.82-10.76-60.82-24.1v-58.07
			c0,13.33,27.22,24.1,60.82,24.1C1026.33,699.91,1053.55,689.15,1053.55,675.81z"/>
		<path class="st0" d="M1028.87,649.08c0,0,172.53-40.12,205.27-27.55c32.74,12.57,32.2,89.05-205.27,42.93"/>
		<path class="st0" d="M955.56,649.08c0,0-172.53-40.12-205.27-27.55c-32.74,12.57-32.2,89.05,205.27,42.93"/>
		<path class="st0" d="M1028.86,631.02v44.82c0,5.26-16.17,9.48-36.15,9.48c-19.97,0-36.15-4.22-36.15-9.48v-44.82H1028.86z"/>
		<ellipse class="st0" cx="992.73" cy="631.02" rx="36.15" ry="9.49"/>
	</g>
	<polygon class="st0" points="1010.47,826.89 979.92,826.89 990.14,927 1020.69,927 	"/>
	<polygon class="st0" points="1000.75,1207.01 725.36,1126.69 725.36,1068.65 1000.75,1148.96 	"/>
	<polygon class="st0" points="1000.75,1207.01 1277.87,1045.09 1277.87,987.04 1000.75,1148.96 	"/>
	<polygon class="st0" points="768.42,1197.3 1000.75,1265.07 1000.75,1207.03 768.42,1139.26 	"/>
	<polygon class="st0" points="1247.64,1120.81 1000.75,1265.07 1000.75,1207.03 1247.64,1062.77 	"/>
	<path class="st0" d="M1186.87,960.48l38.63,11.35l-25.73,15.08l-170.98-49.88l25.87-15.08l-52.19-15.22l-25.8,15.08l-38.18,22.34
		l-68.43,39.92l-38.18,22.34h-0.07l-68.23,39.92h-0.07l-38.18,22.34l184.4,53.75l38.7,11.28l52.32,15.29l106.47-62.26l106.61-62.26
		h0.07l38.11-22.34l25.87-15.08L1186.87,960.48z M986.63,1111.43l-170.91-49.88l68.3-39.92l170.98,49.88L986.63,1111.43z
		 M1093.17,1049.17l-170.91-49.88l68.36-39.92l170.91,49.81L1093.17,1049.17z"/>
	<polygon class="st0" points="1054.99,1071.51 986.63,1111.43 815.72,1061.55 884.02,1021.64 	"/>
	<polygon class="st0" points="1161.53,1009.18 1093.17,1049.17 922.26,999.29 990.62,959.38 	"/>
	<polygon class="st0" points="1225.51,971.83 1199.77,986.91 1028.8,937.03 1054.66,921.95 1186.87,960.48 	"/>
	<polygon class="st0" points="948.45,1133.7 948.39,1133.77 909.75,1122.43 	"/>
	<polygon class="st0" points="1054.99,1071.51 986.63,1111.43 815.72,1061.55 884.02,1021.64 	"/>
	<polygon class="st0" points="1161.53,1009.18 1093.17,1049.17 922.26,999.29 990.62,959.38 	"/>
	<polygon class="st0" points="1225.51,971.83 1199.77,986.91 1028.8,937.03 1054.66,921.95 1054.86,921.81 1186.87,960.48 	"/>
	<rect x="445.64" y="1085.15" class="st0" width="279.73" height="27.67"/>
	<rect x="1277.87" y="1003" class="st0" width="279.73" height="27.67"/>
	<g>
		<path class="st0" d="M445.64,1048.01v140.09c0,9-18.4,16.31-41.13,16.31c-22.73,0-41.13-7.31-41.13-16.31v-140.09"/>
		<ellipse class="st0" cx="404.51" cy="970.31" rx="60.82" ry="24.1"/>
		<path class="st0" d="M465.33,970.31v58.07c0,13.33-27.22,24.1-60.82,24.1s-60.82-10.76-60.82-24.1v-58.07
			c0,13.33,27.22,24.1,60.82,24.1S465.33,983.65,465.33,970.31z"/>
		<path class="st0" d="M440.65,943.58c0,0,172.53-40.12,205.27-27.55c32.74,12.57,32.2,89.05-205.27,42.93"/>
		<path class="st0" d="M367.34,943.58c0,0-172.53-40.12-205.27-27.55s-32.2,89.05,205.27,42.93"/>
		<path class="st0" d="M440.64,925.52v44.82c0,5.26-16.17,9.48-36.15,9.48c-19.97,0-36.15-4.22-36.15-9.48v-44.82H440.64z"/>
		<ellipse class="st0" cx="404.51" cy="925.52" rx="36.15" ry="9.49"/>
	</g>
	<g>
		<path class="st0" d="M1051.6,1255.03v140.09c0,9-18.4,16.31-41.13,16.31c-22.73,0-41.13-7.31-41.13-16.31v-140.09"/>
		<ellipse class="st0" cx="1010.47" cy="1177.33" rx="60.82" ry="24.1"/>
		<path class="st0" d="M1071.29,1177.33v58.07c0,13.33-27.22,24.1-60.82,24.1s-60.82-10.76-60.82-24.1v-58.07
			c0,13.33,27.22,24.1,60.82,24.1S1071.29,1190.66,1071.29,1177.33z"/>
		<path class="st0" d="M1046.61,1150.6c0,0,172.53-40.12,205.27-27.55c32.74,12.57,32.2,89.05-205.27,42.93"/>
		<path class="st0" d="M973.3,1150.6c0,0-172.53-40.12-205.27-27.55c-32.74,12.57-32.2,89.05,205.27,42.93"/>
		<path class="st0" d="M1046.6,1132.54v44.82c0,5.26-16.17,9.48-36.15,9.48c-19.97,0-36.15-4.22-36.15-9.48v-44.82H1046.6z"/>
		<ellipse class="st0" cx="1010.47" cy="1132.54" rx="36.15" ry="9.49"/>
	</g>
	<g>
		<path class="st0" d="M1639.82,960.53v140.09c0,9-18.4,16.31-41.13,16.31c-22.73,0-41.13-7.31-41.13-16.31V960.53"/>
		<ellipse class="st0" cx="1598.69" cy="882.83" rx="60.82" ry="24.1"/>
		<path class="st0" d="M1659.51,882.83v58.07c0,13.33-27.22,24.1-60.82,24.1c-33.6,0-60.82-10.76-60.82-24.1v-58.07
			c0,13.33,27.22,24.1,60.82,24.1C1632.29,906.93,1659.51,896.17,1659.51,882.83z"/>
		<path class="st0" d="M1634.83,856.1c0,0,172.53-40.12,205.27-27.55c32.74,12.57,32.2,89.05-205.27,42.93"/>
		<path class="st0" d="M1561.52,856.1c0,0-172.53-40.12-205.27-27.55c-32.74,12.57-32.2,89.05,205.27,42.93"/>
		<path class="st0" d="M1634.82,838.04v44.82c0,5.26-16.17,9.48-36.15,9.48c-19.97,0-36.15-4.22-36.15-9.48v-44.82H1634.82z"/>
		<ellipse class="st0" cx="1598.69" cy="838.04" rx="36.15" ry="9.49"/>
	</g>
</g>
</svg>
