<?xml version="1.0" encoding="utf-8"?>
<!-- Generator: Adobe Illustrator 26.2.1, SVG Export Plug-In . SVG Version: 6.00 Build 0)  -->
<svg version="1.1" id="Layer_1" xmlns="http://www.w3.org/2000/svg" xmlns:xlink="http://www.w3.org/1999/xlink" x="0px" y="0px"
	 viewBox="0 0 2000 2000" style="enable-background:new 0 0 2000 2000;" xml:space="preserve">
<style type="text/css">
	.st0{display:none;}
	.st1{display:inline;}
	.st2{fill:#FFFFFF;stroke:#000000;stroke-width:6;stroke-linecap:round;stroke-linejoin:round;stroke-miterlimit:10;}
	
		.st3{display:inline;fill:#FFFFFF;stroke:#000000;stroke-width:6;stroke-linecap:round;stroke-linejoin:round;stroke-miterlimit:10;}
	.st4{fill:none;stroke:#000000;stroke-width:6;stroke-linecap:round;stroke-linejoin:round;stroke-miterlimit:10;}
</style>
<g id="Drone_Man" class="st0">
	<g class="st1">
		<path class="st2" d="M1033.86,753.51V893.6c0,9-18.4,16.3-41.13,16.3c-22.73,0-41.13-7.31-41.13-16.3V753.51"/>
		<ellipse class="st2" cx="992.73" cy="675.81" rx="60.82" ry="24.1"/>
		<path class="st2" d="M1053.55,675.81v58.07c0,13.33-27.22,24.1-60.82,24.1c-33.6,0-60.82-10.76-60.82-24.1v-58.07
			c0,13.33,27.22,24.1,60.82,24.1C1026.33,699.91,1053.55,689.15,1053.55,675.81z"/>
		<path class="st2" d="M1028.87,649.08c0,0,172.53-40.12,205.27-27.55c32.74,12.57,32.2,89.05-205.27,42.93"/>
		<path class="st2" d="M955.56,649.08c0,0-172.53-40.12-205.27-27.55c-32.74,12.57-32.2,89.05,205.27,42.93"/>
		<path class="st2" d="M1028.86,631.02v44.82c0,5.26-16.17,9.48-36.15,9.48c-19.97,0-36.15-4.22-36.15-9.48v-44.82H1028.86z"/>
		<ellipse class="st2" cx="992.73" cy="631.02" rx="36.15" ry="9.49"/>
	</g>
	<polygon class="st3" points="1010.47,826.89 979.92,826.89 990.14,927 1020.69,927 	"/>
	<polygon class="st3" points="1000.75,1207.01 725.36,1126.69 725.36,1068.65 1000.75,1148.96 	"/>
	<polygon class="st3" points="1000.75,1207.01 1277.87,1045.09 1277.87,987.04 1000.75,1148.96 	"/>
	<polygon class="st3" points="768.42,1197.3 1000.75,1265.07 1000.75,1207.03 768.42,1139.26 	"/>
	<polygon class="st3" points="1247.64,1120.81 1000.75,1265.07 1000.75,1207.03 1247.64,1062.77 	"/>
	<path class="st3" d="M1186.87,960.48l38.63,11.35l-25.73,15.08l-170.98-49.88l25.87-15.08l-52.19-15.22l-25.8,15.08l-38.18,22.34
		l-68.43,39.92l-38.18,22.34h-0.07l-68.23,39.92h-0.07l-38.18,22.34l184.4,53.75l38.7,11.28l52.32,15.29l106.47-62.26l106.61-62.26
		h0.07l38.11-22.34l25.87-15.08L1186.87,960.48z M986.63,1111.43l-170.91-49.88l68.3-39.92l170.98,49.88L986.63,1111.43z
		 M1093.17,1049.17l-170.91-49.88l68.36-39.92l170.91,49.81L1093.17,1049.17z"/>
	<polygon class="st3" points="1054.99,1071.51 986.63,1111.43 815.72,1061.55 884.02,1021.64 	"/>
	<polygon class="st3" points="1161.53,1009.18 1093.17,1049.17 922.26,999.29 990.62,959.38 	"/>
	<polygon class="st3" points="1225.51,971.83 1199.77,986.91 1028.8,937.03 1054.66,921.95 1186.87,960.48 	"/>
	<polygon class="st3" points="948.45,1133.7 948.39,1133.77 909.75,1122.43 	"/>
	<polygon class="st3" points="1054.99,1071.51 986.63,1111.43 815.72,1061.55 884.02,1021.64 	"/>
	<polygon class="st3" points="1161.53,1009.18 1093.17,1049.17 922.26,999.29 990.62,959.38 	"/>
	<polygon class="st3" points="1225.51,971.83 1199.77,986.91 1028.8,937.03 1054.66,921.95 1054.86,921.81 1186.87,960.48 	"/>
	<rect x="445.64" y="1085.15" class="st3" width="279.73" height="27.67"/>
	<rect x="1277.87" y="1003" class="st3" width="279.73" height="27.67"/>
	<g class="st1">
		<path class="st2" d="M445.64,1048.01v140.09c0,9-18.4,16.31-41.13,16.31c-22.73,0-41.13-7.31-41.13-16.31v-140.09"/>
		<ellipse class="st2" cx="404.51" cy="970.31" rx="60.82" ry="24.1"/>
		<path class="st2" d="M465.33,970.31v58.07c0,13.33-27.22,24.1-60.82,24.1s-60.82-10.76-60.82-24.1v-58.07
			c0,13.33,27.22,24.1,60.82,24.1S465.33,983.65,465.33,970.31z"/>
		<path class="st2" d="M440.65,943.58c0,0,172.53-40.12,205.27-27.55c32.74,12.57,32.2,89.05-205.27,42.93"/>
		<path class="st2" d="M367.34,943.58c0,0-172.53-40.12-205.27-27.55s-32.2,89.05,205.27,42.93"/>
		<path class="st2" d="M440.64,925.52v44.82c0,5.26-16.17,9.48-36.15,9.48c-19.97,0-36.15-4.22-36.15-9.48v-44.82H440.64z"/>
		<ellipse class="st2" cx="404.51" cy="925.52" rx="36.15" ry="9.49"/>
	</g>
	<g class="st1">
		<path class="st2" d="M1051.6,1255.03v140.09c0,9-18.4,16.31-41.13,16.31c-22.73,0-41.13-7.31-41.13-16.31v-140.09"/>
		<ellipse class="st2" cx="1010.47" cy="1177.33" rx="60.82" ry="24.1"/>
		<path class="st2" d="M1071.29,1177.33v58.07c0,13.33-27.22,24.1-60.82,24.1s-60.82-10.76-60.82-24.1v-58.07
			c0,13.33,27.22,24.1,60.82,24.1S1071.29,1190.66,1071.29,1177.33z"/>
		<path class="st2" d="M1046.61,1150.6c0,0,172.53-40.12,205.27-27.55c32.74,12.57,32.2,89.05-205.27,42.93"/>
		<path class="st2" d="M973.3,1150.6c0,0-172.53-40.12-205.27-27.55c-32.74,12.57-32.2,89.05,205.27,42.93"/>
		<path class="st2" d="M1046.6,1132.54v44.82c0,5.26-16.17,9.48-36.15,9.48c-19.97,0-36.15-4.22-36.15-9.48v-44.82H1046.6z"/>
		<ellipse class="st2" cx="1010.47" cy="1132.54" rx="36.15" ry="9.49"/>
	</g>
	<g class="st1">
		<path class="st2" d="M1639.82,960.53v140.09c0,9-18.4,16.31-41.13,16.31c-22.73,0-41.13-7.31-41.13-16.31V960.53"/>
		<ellipse class="st2" cx="1598.69" cy="882.83" rx="60.82" ry="24.1"/>
		<path class="st2" d="M1659.51,882.83v58.07c0,13.33-27.22,24.1-60.82,24.1c-33.6,0-60.82-10.76-60.82-24.1v-58.07
			c0,13.33,27.22,24.1,60.82,24.1C1632.29,906.93,1659.51,896.17,1659.51,882.83z"/>
		<path class="st2" d="M1634.83,856.1c0,0,172.53-40.12,205.27-27.55c32.74,12.57,32.2,89.05-205.27,42.93"/>
		<path class="st2" d="M1561.52,856.1c0,0-172.53-40.12-205.27-27.55c-32.74,12.57-32.2,89.05,205.27,42.93"/>
		<path class="st2" d="M1634.82,838.04v44.82c0,5.26-16.17,9.48-36.15,9.48c-19.97,0-36.15-4.22-36.15-9.48v-44.82H1634.82z"/>
		<ellipse class="st2" cx="1598.69" cy="838.04" rx="36.15" ry="9.49"/>
	</g>
</g>
<g id="Drone_Man_00000026157977784810357140000008691364968391084419_">
	<g>
		<ellipse class="st2" cx="992.77" cy="675.05" rx="60.9" ry="24.17"/>
		<path class="st2" d="M1053.67,675.05v58.25c0,13.37-27.26,24.17-60.9,24.17c-33.65,0-60.9-10.8-60.9-24.17v-58.25
			c0,13.37,27.26,24.17,60.9,24.17C1026.41,699.22,1053.67,688.42,1053.67,675.05z"/>
		<path class="st2" d="M707.28,624.59c0,0,0,50.43,285.49,50.43s285.49-50.43,285.49-50.43"/>
		<line class="st2" x1="992.77" y1="505.83" x2="992.77" y2="743.35"/>
		<path class="st2" d="M1033.95,769.59v123.93c0,9.02-18.42,16.36-41.19,16.36c-22.76,0-41.19-7.33-41.19-16.36V769.59"/>
		<path class="st2" d="M1278.25,624.6c0,4.02-0.46,8.05-1.44,12c-14.62-59.89-136.19-106.59-284.05-106.59
			c-147.73,0-269.36,46.7-284.05,106.59c-0.98-3.96-1.44-7.98-1.44-12c0-65.58,127.86-118.8,285.49-118.8
			C1150.46,505.8,1278.25,559.02,1278.25,624.6z"/>
		<path class="st2" d="M1278.25,648.75c0,4.02-0.46,8.05-1.44,12.01c0,0.07,0,0.14,0,0.14c-14.62,59.89-136.19,106.66-284.05,106.66
			c-147.86,0-269.43-46.77-284.05-106.66c0,0,0-0.07,0-0.14c-0.98-3.96-1.44-7.98-1.44-12.01c0-4.02,0.46-7.98,1.44-11.94
			c14.69,59.89,136.25,106.52,284.05,106.52c147.86,0,269.43-46.7,284.05-106.59C1277.79,640.7,1278.25,644.72,1278.25,648.75z"/>
		<path class="st2" d="M1028.95,630.11v44.96c0,5.27-16.2,9.51-36.19,9.51c-20,0-36.19-4.23-36.19-9.51v-44.96H1028.95z"/>
		<ellipse class="st2" cx="992.77" cy="630.11" rx="36.19" ry="9.52"/>
		<path class="st2" d="M1028.96,648.23c0,0,172.76-40.25,205.54-27.64c32.78,12.61,32.24,89.32-205.54,43.06"/>
		<path class="st2" d="M955.55,648.23c0,0-172.76-40.25-205.54-27.64c-32.78,12.61-32.24,89.32,205.54,43.06"/>
	</g>
	<polygon class="st2" points="1010.54,826.59 979.95,826.59 990.18,927.02 1020.77,927.02 	"/>
	<polygon class="st2" points="1000.8,1207.9 725.05,1127.33 725.05,1069.1 1000.8,1149.67 	"/>
	<polygon class="st2" points="1000.8,1207.9 1278.29,1045.47 1278.29,987.25 1000.8,1149.67 	"/>
	<polygon class="st2" points="768.16,1198.16 1000.8,1266.14 1000.8,1207.92 768.16,1139.94 	"/>
	<polygon class="st2" points="1248.02,1121.43 1000.8,1266.14 1000.8,1207.92 1248.02,1063.21 	"/>
	<path class="st2" d="M1187.17,960.6l38.69,11.38l-25.77,15.13l-171.2-50.03l25.9-15.13l-52.26-15.27l-25.83,15.13l-38.23,22.41
		l-68.52,40.04l-38.23,22.41h-0.07l-68.32,40.04h-0.07l-38.23,22.41l184.64,53.92l38.75,11.31l52.39,15.34l106.62-62.45
		l106.75-62.45h0.07l38.16-22.41l25.9-15.13L1187.17,960.6z M986.66,1112.02l-171.14-50.03l68.39-40.04l171.2,50.03L986.66,1112.02z
		 M1093.34,1049.56L922.2,999.53l68.45-40.04l171.14,49.96L1093.34,1049.56z"/>
	<polygon class="st2" points="1055.11,1071.98 986.66,1112.02 815.52,1061.99 883.91,1021.95 	"/>
	<polygon class="st2" points="1161.8,1009.46 1093.34,1049.56 922.2,999.53 990.66,959.49 	"/>
	<polygon class="st2" points="1225.86,971.98 1200.09,987.11 1028.89,937.08 1054.79,921.95 1187.17,960.6 	"/>
	<polygon class="st2" points="948.43,1134.36 948.37,1134.43 909.68,1123.05 	"/>
	<polygon class="st2" points="1055.11,1071.98 986.66,1112.02 815.52,1061.99 883.91,1021.95 	"/>
	<polygon class="st2" points="1161.8,1009.46 1093.34,1049.56 922.2,999.53 990.66,959.49 	"/>
	<polygon class="st2" points="1225.86,971.98 1200.09,987.11 1028.89,937.08 1054.79,921.95 1054.98,921.81 1187.17,960.6 	"/>
	<rect x="444.95" y="1085.66" class="st2" width="280.1" height="27.76"/>
	<rect x="1278.29" y="1003.25" class="st2" width="280.1" height="27.76"/>
	<g>
		<ellipse class="st2" cx="403.77" cy="970.46" rx="60.9" ry="24.17"/>
		<path class="st2" d="M464.67,970.46v58.25c0,13.37-27.26,24.17-60.9,24.17s-60.9-10.8-60.9-24.17v-58.25
			c0,13.37,27.26,24.17,60.9,24.17S464.67,983.84,464.67,970.46z"/>
		<path class="st2" d="M118.28,920.01c0,0,0,50.43,285.49,50.43s285.49-50.43,285.49-50.43"/>
		<line class="st2" x1="403.77" y1="801.25" x2="403.77" y2="1038.77"/>
		<path class="st2" d="M444.95,1065v123.93c0,9.02-18.42,16.36-41.19,16.36c-22.76,0-41.19-7.33-41.19-16.36V1065"/>
		<path class="st2" d="M689.25,920.02c0,4.02-0.46,8.05-1.44,12c-14.62-59.89-136.19-106.59-284.05-106.59
			c-147.73,0-269.36,46.7-284.05,106.59c-0.98-3.96-1.44-7.98-1.44-12c0-65.58,127.86-118.8,285.49-118.8
			C561.46,801.22,689.25,854.44,689.25,920.02z"/>
		<path class="st2" d="M689.25,944.17c0,4.02-0.46,8.05-1.44,12.01c0,0.07,0,0.14,0,0.14c-14.62,59.89-136.19,106.66-284.05,106.66
			c-147.86,0-269.43-46.77-284.05-106.66c0,0,0-0.07,0-0.14c-0.98-3.96-1.44-7.98-1.44-12.01s0.46-7.98,1.44-11.94
			c14.69,59.89,136.25,106.52,284.05,106.52c147.86,0,269.43-46.7,284.05-106.59C688.79,936.12,689.25,940.14,689.25,944.17z"/>
		<path class="st2" d="M439.95,925.53v44.96c0,5.27-16.2,9.51-36.19,9.51c-20,0-36.19-4.23-36.19-9.51v-44.96H439.95z"/>
		<ellipse class="st2" cx="403.77" cy="925.53" rx="36.19" ry="9.52"/>
		<path class="st2" d="M439.96,943.65c0,0,172.76-40.25,205.54-27.64c32.78,12.61,32.24,89.32-205.54,43.06"/>
		<path class="st2" d="M366.55,943.65c0,0-172.76-40.25-205.54-27.64c-32.78,12.61-32.24,89.32,205.54,43.06"/>
	</g>
	<g>
		<ellipse class="st2" cx="1010.53" cy="1178.13" rx="60.9" ry="24.17"/>
		<path class="st2" d="M1071.44,1178.13v58.25c0,13.37-27.26,24.17-60.9,24.17c-33.65,0-60.9-10.8-60.9-24.17v-58.25
			c0,13.37,27.26,24.17,60.9,24.17C1044.18,1202.3,1071.44,1191.5,1071.44,1178.13z"/>
		<path class="st4" d="M725.05,1127.67c0,0,0,50.43,285.49,50.43s285.49-50.43,285.49-50.43"/>
		<line class="st4" x1="1010.54" y1="1008.91" x2="1010.54" y2="1246.43"/>
		<path class="st2" d="M1051.72,1272.67v123.93c0,9.02-18.42,16.36-41.19,16.36c-22.76,0-41.19-7.33-41.19-16.36v-123.93"/>
		<path class="st2" d="M1296.02,1127.68c0,4.02-0.46,8.05-1.44,12c-14.62-59.89-136.19-106.59-284.05-106.59
			c-147.73,0-269.36,46.7-284.05,106.59c-0.98-3.96-1.44-7.98-1.44-12c0-65.58,127.86-118.8,285.49-118.8
			C1168.22,1008.88,1296.02,1062.11,1296.02,1127.68z"/>
		<path class="st2" d="M1296.02,1151.83c0,4.02-0.46,8.05-1.44,12.01c0,0.07,0,0.14,0,0.14
			c-14.62,59.89-136.19,106.66-284.05,106.66c-147.86,0-269.43-46.77-284.05-106.66c0,0,0-0.07,0-0.14
			c-0.98-3.96-1.44-7.98-1.44-12.01c0-4.02,0.46-7.98,1.44-11.94c14.69,59.89,136.25,106.52,284.05,106.52
			c147.86,0,269.43-46.7,284.05-106.59C1295.56,1143.78,1296.02,1147.81,1296.02,1151.83z"/>
		<path class="st2" d="M1046.72,1151.32c0,0,172.76-40.25,205.54-27.64c32.78,12.61,32.24,89.32-205.54,43.06"/>
		<path class="st2" d="M973.32,1151.32c0,0-172.76-40.25-205.54-27.64c-32.78,12.61-32.24,89.32,205.54,43.06"/>
		<path class="st2" d="M1046.71,1133.2v44.96c0,5.27-16.2,9.51-36.19,9.51c-20,0-36.19-4.23-36.19-9.51v-44.96H1046.71z"/>
		<ellipse class="st2" cx="1010.53" cy="1133.2" rx="36.19" ry="9.52"/>
	</g>
	<g>
		<ellipse class="st2" cx="1599.53" cy="882.71" rx="60.9" ry="24.17"/>
		<path class="st2" d="M1660.43,882.71v58.25c0,13.37-27.26,24.17-60.9,24.17c-33.65,0-60.9-10.8-60.9-24.17v-58.25
			c0,13.37,27.26,24.17,60.9,24.17C1633.18,906.88,1660.43,896.09,1660.43,882.71z"/>
		<path class="st2" d="M1314.05,832.26c0,0,0,50.43,285.49,50.43s285.49-50.43,285.49-50.43"/>
		<line class="st2" x1="1599.54" y1="713.5" x2="1599.54" y2="951.02"/>
		<path class="st2" d="M1640.72,977.25v123.93c0,9.02-18.42,16.36-41.19,16.36c-22.76,0-41.19-7.33-41.19-16.36V977.25"/>
		<path class="st2" d="M1885.02,832.27c0,4.02-0.46,8.05-1.44,12c-14.62-59.89-136.19-106.59-284.05-106.59
			c-147.73,0-269.36,46.7-284.05,106.59c-0.98-3.96-1.44-7.98-1.44-12c0-65.58,127.86-118.8,285.49-118.8
			C1757.22,713.47,1885.02,766.69,1885.02,832.27z"/>
		<path class="st2" d="M1885.02,856.41c0,4.02-0.46,8.05-1.44,12.01c0,0.07,0,0.14,0,0.14c-14.62,59.89-136.19,106.66-284.05,106.66
			c-147.86,0-269.43-46.77-284.05-106.66c0,0,0-0.07,0-0.14c-0.98-3.96-1.44-7.98-1.44-12.01c0-4.02,0.46-7.98,1.44-11.94
			C1330.16,904.37,1451.73,951,1599.53,951c147.86,0,269.43-46.7,284.05-106.59C1884.56,848.36,1885.02,852.39,1885.02,856.41z"/>
		<path class="st2" d="M1635.71,837.78v44.96c0,5.27-16.2,9.51-36.19,9.51c-20,0-36.19-4.23-36.19-9.51v-44.96H1635.71z"/>
		<ellipse class="st2" cx="1599.53" cy="837.78" rx="36.19" ry="9.52"/>
		<path class="st2" d="M1635.72,855.9c0,0,172.76-40.25,205.54-27.64c32.78,12.61,32.24,89.32-205.54,43.06"/>
		<path class="st2" d="M1562.32,855.9c0,0-172.76-40.25-205.54-27.64c-32.78,12.61-32.24,89.32,205.54,43.06"/>
	</g>
</g>
</svg>
